<svg height="48" viewBox="0 0 48 48" width="48" xmlns="http://www.w3.org/2000/svg"><path d="m42.459 32.519c-1.037-3.336-9.539-19.596-12.12-24.5l-.026-.048c-1.16-2.412-3.637-3.971-6.313-3.971s-5.153 1.559-6.291 3.929l-.048.091c-2.581 4.903-11.083 21.163-12.119 24.498-.281.903-.542 1.889-.542 2.982 0 4.687 3.813 8.5 8.5 8.5 4.654 0 7.612-1.949 10.5-5.184 2.888 3.235 5.846 5.184 10.5 5.184 4.687 0 8.5-3.813 8.5-8.5 0-1.093-.261-2.079-.541-2.981zm-18.46 2.143c-1.669-2.147-3.999-5.781-3.999-8.662 0-2.206 1.794-4 4-4s4 1.794 4 4c0 2.872-2.332 6.511-4.001 8.662zm10.501 6.338c-3.287 0-5.521-1.107-8.325-4.258 1.703-2.146 4.825-6.638 4.825-10.742 0-3.86-3.141-7-7-7s-7 3.14-7 7c0 4.104 3.122 8.596 4.825 10.742-2.804 3.151-5.038 4.258-8.325 4.258-3.032 0-5.5-2.467-5.5-5.5 0-.653.162-1.308.406-2.09.764-2.46 6.894-14.462 11.91-23.993l.076-.146c.663-1.38 2.079-2.271 3.608-2.271s2.945.891 3.615 2.285l.068.132c5.017 9.531 11.147 21.533 11.912 23.994.243.781.405 1.436.405 2.089 0 3.033-2.468 5.5-5.5 5.5z" fill="#ff5252"/></svg>