<svg width="22" height="27" viewBox="0 0 22 27" fill="none" xmlns="http://www.w3.org/2000/svg">
<path fill-rule="evenodd" clip-rule="evenodd" d="M1.79778 23.8155C1.75219 23.3726 1.79384 14.4319 1.79384 13.7194C1.79384 10.3535 1.79384 6.98906 1.79384 3.62324C1.79384 2.81435 1.69358 1.98847 2.44906 1.8022C2.77731 1.72014 9.36826 1.77371 10.0313 1.77371H17.5939C18.1957 1.77371 19.239 1.60439 19.338 2.56568C19.3823 3.00073 19.3432 11.9413 19.3432 12.646C19.3432 13.692 19.3889 23.6462 19.3172 23.9315C19.2443 24.2206 18.9955 24.4902 18.6881 24.5644C18.3585 24.6439 11.7702 24.5919 11.1059 24.5919H3.5432C2.9844 24.5919 1.89417 24.7585 1.79778 23.8167V23.8155ZM2.34876 0.0333168C1.45651 0.15185 0.867694 0.62358 0.497767 1.15372C-0.0506113 1.94047 0.0327755 2.57742 0.0327755 3.66115V21.4358C0.0327755 23.1825 -0.333231 25.0986 1.38094 26.0156C2.21718 26.4637 2.95835 26.3504 4.0017 26.3504C5.2196 26.3504 18.2764 26.3985 18.8013 26.3321C19.6636 26.2226 20.2863 25.7251 20.6367 25.2106C21.1707 24.4252 21.1017 23.7948 21.1017 22.7032V4.92835C21.1017 3.16729 21.4664 1.27074 19.7535 0.348526C18.9212 -0.0995545 18.1761 0.0139819 17.1315 0.0139819C15.9696 0.0139819 2.80463 -0.0279036 2.34743 0.0333168H2.34876Z" fill="white"/>
<path fill-rule="evenodd" clip-rule="evenodd" d="M15.378 17.059C15.1514 19.6042 12.9982 21.7208 10.186 21.502C7.66947 21.3053 5.52806 19.0781 5.75731 16.3166C5.96832 13.7793 8.16309 11.6663 10.9532 11.8851C13.4437 12.0805 15.6242 14.3054 15.378 17.0603V17.059ZM4.01577 17.3663C4.34141 20.7478 7.40374 23.6252 11.2228 23.2449C14.6186 22.9075 17.4999 19.8844 17.1195 16.0236C16.7861 12.6408 13.7394 9.76322 9.91373 10.1397C6.49842 10.4757 3.64584 13.5173 4.01577 17.3663Z" fill="#D4AF37"/>
<path fill-rule="evenodd" clip-rule="evenodd" d="M4.2867 3.53975C3.66277 3.65828 3.41786 4.23678 3.60152 4.71612C3.83207 5.3166 4.29709 5.28141 5.03955 5.28141C5.94092 5.28141 16.5334 5.33083 16.8942 5.2631C17.3566 5.17713 17.7643 4.64694 17.5272 4.0712C17.2901 3.49547 16.8004 3.52041 16.0957 3.52041C15.1982 3.52041 4.6436 3.47202 4.2867 3.53975Z" fill="white"/>
<path fill-rule="evenodd" clip-rule="evenodd" d="M4.20615 7.06995C3.25659 7.32525 3.38161 8.62121 4.25042 8.77752C4.54871 8.83093 9.9231 8.79457 10.3764 8.79457C10.9678 8.79457 12.9893 8.86993 13.4127 8.76964C14.3375 8.5495 14.2736 7.20409 13.3605 7.04909C13.0753 7.00089 7.67226 7.03611 7.22939 7.03611C6.66278 7.03611 4.59435 6.96704 4.20749 7.06995H4.20615Z" fill="white"/>
<path fill-rule="evenodd" clip-rule="evenodd" d="M9.95455 16.9967C9.33193 16.5278 8.71059 15.5339 8.15049 15.4779C7.65031 15.4271 7.25828 15.7594 7.18273 16.1775C7.07722 16.7558 7.49661 17.0605 7.72977 17.2898L9.38926 18.9337C10.1734 19.5941 10.813 18.6901 11.3965 18.0779C11.8967 17.553 12.5662 16.9069 13.0469 16.4263C13.2579 16.214 13.6929 15.8191 13.8453 15.5756C14.1097 15.1535 13.9378 14.6327 13.6343 14.419C12.8032 13.8355 12.2939 14.7225 11.6101 15.3738L9.95588 16.9967H9.95455Z" fill="white"/>
<path fill-rule="evenodd" clip-rule="evenodd" d="M15.6333 7.06078C14.6473 7.31478 14.7632 8.74874 15.8261 8.79303C16.0697 8.80345 16.7053 8.81518 16.9098 8.7709C17.4699 8.64976 17.8086 7.97648 17.4426 7.41898C17.3058 7.21057 17.0727 7.0489 16.7119 7.03457C16.4774 7.02546 15.8209 7.01258 15.6321 7.06078H15.6333Z" fill="white"/>
</svg>
