<svg width="25" height="24" viewBox="0 0 25 24" fill="none" xmlns="http://www.w3.org/2000/svg">
<path fill-rule="evenodd" clip-rule="evenodd" d="M12.1763 20.643C11.568 20.643 10.7513 20.5309 10.2641 20.415C9.79781 20.3043 9.06577 20.0855 8.65546 19.8823C7.63165 19.3743 6.92826 18.9379 6.09984 18.1095C4.6553 16.665 3.66665 14.6212 3.61585 12.5554C3.60934 12.3144 3.56375 12.2883 3.56375 12.033C3.56375 11.637 3.70703 10.4908 3.79561 10.1209C3.98578 9.31852 4.27625 8.50705 4.68917 7.82711C4.92623 7.43764 5.26359 6.86315 5.57751 6.52709C5.67781 6.42028 5.73642 6.38123 5.83151 6.25749C6.17669 5.81071 6.80322 5.31967 7.26433 4.9784C7.46492 4.8299 7.69026 4.71267 7.9117 4.5798C8.63071 4.14866 9.39271 3.87641 10.2263 3.66019C10.6614 3.54817 11.185 3.47654 11.6566 3.47263C11.9184 3.47133 11.9444 3.42054 12.1776 3.42054L13.1584 3.48955C15.1917 3.79956 16.816 4.51726 18.254 5.95659C19.2583 6.96086 19.8106 7.91957 20.3043 9.23385C20.5713 9.94375 20.7185 10.7357 20.738 11.5107C20.7445 11.753 20.7901 11.7777 20.7901 12.033C20.7901 12.4264 20.6455 13.5792 20.5583 13.9465C20.3212 14.943 19.8601 16.11 19.2518 16.9202C18.917 17.3657 18.6448 17.72 18.254 18.1108C16.6584 19.7064 14.4532 20.6443 12.1776 20.6443L12.1763 20.643ZM4.56672 19.5488L4.08347 20.1597C3.92065 20.3798 3.75914 20.5818 3.58199 20.7993C3.17299 21.3034 2.75877 21.7241 2.75877 22.3063C2.75877 22.8339 3.27849 23.4005 3.80473 23.4005C4.66702 23.4005 4.77123 23.0332 5.3196 22.348C5.49284 22.1318 5.65045 21.9377 5.82239 21.7097C5.93311 21.5626 6.29001 21.1535 6.32388 21.0233C6.51666 21.0389 6.75763 21.2304 6.92175 21.3294C7.13928 21.4623 7.31252 21.5404 7.54437 21.6577C8.68542 22.2334 9.94369 22.5408 11.2293 22.6814L12.1268 22.7388C12.317 22.744 12.4081 22.7167 12.5202 22.701C12.6817 22.6789 12.8224 22.6932 12.9839 22.6893C13.2287 22.6828 13.5935 22.6267 13.8318 22.5864C14.6251 22.4509 15.3441 22.2646 16.0748 21.9755C16.2898 21.8908 16.5399 21.7892 16.7405 21.6902L17.9766 21.0233L19.0082 22.322C19.5722 23.0136 19.6608 23.4018 20.5452 23.4018C21.2291 23.4018 22.0627 22.4079 21.2708 21.4401L19.7845 19.5502C19.8588 19.4381 19.9122 19.4003 20.0112 19.3013L21.4883 17.2576C23.1386 14.5262 23.2936 10.5963 21.9103 7.62651C21.5795 6.91662 21.2356 6.36039 20.8044 5.73646L20.3681 5.17378C19.4941 4.19947 19.3104 4.04575 18.2775 3.26942C18.1681 3.18736 18.1173 3.14956 17.9935 3.07792C17.139 2.57643 16.6727 2.27816 15.6307 1.92126C15.1474 1.75583 14.5795 1.60475 14.0389 1.51618C13.4385 1.41849 13.2288 1.38201 12.6504 1.38332C12.4212 1.38332 12.3274 1.33905 12.1763 1.33905L11.2319 1.38853C9.24943 1.60215 8.0667 2.06065 6.41896 3.04408C5.80676 3.4101 5.51889 3.70837 4.98745 4.133C4.63445 4.41436 3.88548 5.26624 3.56766 5.70911C3.42047 5.91492 3.31106 6.07254 3.16647 6.3083C3.03101 6.52844 2.91899 6.70165 2.79133 6.9309C2.16611 8.04719 1.73235 9.43706 1.57865 10.7123C1.31163 12.9175 1.74929 15.4197 2.84474 17.2289L4.31533 19.2779C4.42083 19.3873 4.48466 19.429 4.56672 19.5502V19.5488Z" fill="white"/>
<path fill-rule="evenodd" clip-rule="evenodd" d="M0 3.94807C0 6.0999 0.824521 6.42556 0.950869 6.89708C1.17361 6.87885 1.50315 6.4633 1.74804 6.21973C2.00594 5.96182 2.22868 5.73912 2.48529 5.48252L5.43428 2.53351C5.69219 2.2756 5.91362 2.05417 6.17153 1.79496C6.36431 1.60088 6.75898 1.32474 6.94525 1.04599C6.63785 0.586188 5.24411 0 4.4248 0C3.42574 0 3.30069 0.0156587 2.38629 0.386888C2.187 0.467647 1.92909 0.623962 1.75455 0.752915C0.810195 1.44979 0.00260568 2.69634 0.00260568 3.9468L0 3.94807Z" fill="white"/>
<path fill-rule="evenodd" clip-rule="evenodd" d="M17.4087 1.04726C17.5051 1.19055 17.6262 1.28825 17.7539 1.4159C17.905 1.5696 18.0118 1.62561 18.159 1.77149L22.9615 6.57666C23.0944 6.70952 23.1725 6.87885 23.4018 6.89708C23.4747 6.62485 24.2354 5.88105 24.3526 4.5837V3.89859C24.3136 3.4492 24.195 2.9464 23.9593 2.39021L23.5985 1.75197C22.9237 0.771141 21.6238 0 20.4046 0C19.4342 0 18.723 0.11462 17.9115 0.646065C17.7708 0.738547 17.4881 0.936576 17.4087 1.04599V1.04726Z" fill="white"/>
<path fill-rule="evenodd" clip-rule="evenodd" d="M11.5107 10.5599C10.9636 10.849 10.9714 10.9441 10.6549 11.4169C9.91762 11.4169 9.3497 11.3688 8.60985 11.3688H5.89792C4.86629 11.3688 4.87671 12.3782 5.3261 12.6543C5.70644 12.8875 6.9556 12.7964 7.56259 12.7964C8.62548 12.7964 9.68707 12.7964 10.75 12.7964C11.2527 13.7459 12.4915 13.953 13.3056 13.2119C14.2187 12.3795 13.7107 10.7995 12.8901 10.6094C12.8901 10.2121 12.9461 7.61478 12.8588 7.35817C12.6634 6.77593 11.7946 6.73682 11.5536 7.32427C11.452 7.57176 11.5093 10.1704 11.5093 10.5625L11.5107 10.5599Z" fill="white"/>
</svg>
