<svg width="28" height="24" viewBox="0 0 28 24" fill="none" xmlns="http://www.w3.org/2000/svg">
<path fill-rule="evenodd" clip-rule="evenodd" d="M11.8324 18.2559C11.8324 16.8074 13.118 17.0848 14.6056 17.0848C15.361 17.0848 15.7765 17.5004 15.7765 18.2559V22.015H11.8324V18.2559ZM4.92883 12.5857C4.92883 11.8263 5.22449 11.6819 5.6869 11.3719L12.6309 6.72948C12.9747 6.49892 13.4306 6.14709 13.8032 5.96473C14.1353 6.11843 15.6984 7.21277 16.1569 7.52017L21.9585 11.3953C22.4144 11.6988 22.6775 11.8601 22.6775 12.5857V20.8439C22.6775 21.6333 22.2958 22.0162 21.5052 22.0162H17.7447V18.2559C17.7447 16.3593 16.4981 15.1139 14.6016 15.1139H12.9995C11.1056 15.1139 9.85643 16.3619 9.85643 18.2559L9.85509 22.0162H6.09592C5.30526 22.0162 4.92361 21.6385 4.92361 20.8439V12.5857H4.92883ZM2.95801 12.1547V21.2752C2.95801 21.9121 3.39306 22.7639 3.83724 23.1677C4.36217 23.6444 5.03953 23.9859 5.79241 23.9859H21.8165C23.3132 23.9859 24.6522 22.6479 24.6522 21.15V12.1519C24.6522 11.8263 24.531 11.4592 24.4255 11.2091C24.0712 10.3676 23.3549 9.93121 22.6189 9.44145L16.8876 5.61976C16.3484 5.26025 14.2877 3.77124 13.9295 3.77124C13.2 3.77124 12.9096 4.16733 12.2036 4.63495L7.87778 7.5189C7.23041 7.95005 4.05997 9.96118 3.67181 10.4614C3.30839 10.9316 2.96062 11.4772 2.96062 12.1519L2.95801 12.1547Z" fill="white"/>
<path fill-rule="evenodd" clip-rule="evenodd" d="M21.6928 2.29417H22.6802C22.6815 2.95978 22.7232 5.02309 22.6555 5.5376C22.4093 5.37087 21.6928 4.96178 21.6928 4.75988V2.29417ZM0 9.44401C0 10.0901 0.673439 10.9824 1.83923 10.1123L8.89913 5.21578C9.1857 5.0269 9.38233 4.87342 9.66369 4.68585C9.95286 4.49437 10.1769 4.32764 10.4648 4.13226C11.034 3.7467 13.3096 2.04816 13.6808 2.04816C14.3034 2.04816 14.8375 2.53 15.494 3.00804C16.0254 3.3949 16.5425 3.70628 17.0609 4.09054C18.4065 5.0896 20.4176 6.33871 21.7632 7.33778C22.2816 7.72334 22.7988 8.03469 23.3302 8.42155L25.6982 10.0602C25.9483 10.2373 26.1932 10.4911 26.623 10.4911C27.4554 10.4911 28.0924 9.32277 27.135 8.62329L24.651 6.91699C24.651 5.52065 24.6497 4.12301 24.651 2.72666C24.6523 1.87479 24.6262 1.54793 24.2302 1.05165C23.5229 0.165912 22.6685 0.323542 21.5691 0.323542C20.8684 0.323542 20.2926 0.789889 20.0152 1.23406C19.6062 1.88664 19.7208 2.47002 19.7208 3.46648L16.9346 1.56861C15.1957 0.404117 14.0898 -0.874936 11.7101 0.81709L7.45716 3.77533C7.30085 3.87953 7.17319 3.97844 7.026 4.08265L0.580937 8.54646C0.295676 8.75097 0.00133563 8.98287 0.00133563 9.44528L0 9.44401Z" fill="#D4AF37"/>
</svg>
