<svg width="12" height="12" viewBox="0 0 12 12" fill="none" xmlns="http://www.w3.org/2000/svg">
<path fill-rule="evenodd" clip-rule="evenodd" d="M5.69333 0C2.54825 0 0 2.5501 0 5.6923C0 8.6792 2.30436 11.1309 5.23151 11.3661V11.3867H5.69333C8.83842 11.3867 11.3867 8.83657 11.3867 5.69436C11.3867 2.55239 8.83865 0 5.69333 0ZM6.95137 10.2955C6.59419 10.393 6.2203 10.4499 5.83494 10.4611H5.69333C5.05072 10.4611 4.43766 10.3339 3.87799 10.1032C4.41988 8.15069 5.88883 6.75218 7.5702 6.12727C7.86035 7.53349 7.64973 9.04042 6.95137 10.2955ZM7.31419 5.23788C5.3952 5.92906 3.71923 7.48596 3.04582 9.65886C1.76654 8.80322 0.923624 7.34555 0.923624 5.6923C0.923624 5.10604 1.02952 4.54437 1.22324 4.02543C1.80067 4.31314 2.41811 4.51666 3.05307 4.62984C3.86191 4.77813 4.69063 4.7732 5.49712 4.62779C5.95619 4.54491 6.40435 4.4129 6.83407 4.237C7.02534 4.55496 7.18622 4.89003 7.31419 5.23788ZM8.46044 5.87308C8.73774 7.15307 8.65365 8.50951 8.21109 9.74527C9.52411 8.9276 10.4106 7.48962 10.4608 5.84227C9.80808 5.72393 9.12771 5.73838 8.46044 5.87308ZM10.3966 4.89682C9.67377 4.7953 8.93043 4.8283 8.20432 4.9834C8.06132 4.5822 7.88081 4.19571 7.66575 3.82872C8.26231 3.48418 8.80711 3.05053 9.27543 2.54487C9.8482 3.19612 10.2463 4.00462 10.3966 4.89682ZM3.21625 3.7209C2.66465 3.62269 2.12888 3.44566 1.62889 3.19578C2.05891 2.49753 2.66388 1.91836 3.38278 1.51951L3.38831 1.52125L3.38852 1.52132L3.38855 1.52133L3.38856 1.52133C3.46688 1.54598 3.54165 1.56951 3.61364 1.59535C3.64021 1.60549 3.66622 1.61536 3.69164 1.62499L3.69204 1.62515L3.69206 1.62515L3.69208 1.62516C3.80883 1.66942 3.91308 1.70895 4.00017 1.74933L4.02502 1.76175L4.03095 1.76451C4.08594 1.79008 4.16519 1.82786 4.2366 1.86191C4.27455 1.88002 4.31031 1.89707 4.33905 1.91066L4.34011 1.91125C4.36413 1.92414 4.38431 1.93498 4.40311 1.94619C4.41841 1.95612 4.43208 1.96416 4.43941 1.96845C4.45281 1.97629 4.46658 1.98405 4.47793 1.99036C4.48762 1.99576 4.49714 2.001 4.50428 2.00492L4.50787 2.00689L4.51547 2.01109L4.51643 2.01164C4.52701 2.01775 4.53986 2.02508 4.5545 2.03344C4.58591 2.05135 4.6256 2.074 4.66919 2.09952C4.69991 2.11752 4.72867 2.13469 4.75212 2.14923C4.76955 2.16005 4.77902 2.16634 4.78263 2.16873L4.78284 2.16887C4.78431 2.16985 4.78466 2.17008 4.78407 2.16963L4.80432 2.18497L4.8268 2.19833C4.8611 2.21869 4.89491 2.24208 4.93708 2.27126L4.9371 2.27127L4.93711 2.27128L4.93729 2.2714C4.95654 2.28473 4.97755 2.29926 5.00114 2.31528L5.01718 2.32615L5.0308 2.33383C5.03079 2.33386 5.03143 2.33429 5.03279 2.3352C5.03645 2.33767 5.04535 2.34367 5.06085 2.35477C5.08471 2.37185 5.11352 2.39329 5.14522 2.41713L5.18276 2.44542C5.20207 2.45999 5.22164 2.47476 5.23829 2.48721C5.26028 2.50367 5.28718 2.52365 5.31147 2.54048C5.66587 2.81153 5.98982 3.12103 6.27822 3.46216C5.97138 3.57443 5.65511 3.66087 5.3331 3.71901C4.63115 3.84556 3.91416 3.84898 3.21867 3.72134L3.21746 3.72111L3.21625 3.7209ZM5.69333 0.923457C6.78812 0.923457 7.79668 1.2927 8.60163 1.91323C8.17959 2.36983 7.68539 2.75868 7.14426 3.06299C6.77222 2.59012 6.34179 2.16438 5.86191 1.79882L5.85031 1.78999L5.83828 1.78197L5.835 1.77969C5.83244 1.77788 5.82903 1.77544 5.82465 1.77226C5.81579 1.76582 5.80481 1.7577 5.79165 1.74784C5.77671 1.73667 5.76173 1.72536 5.74564 1.71322L5.74561 1.7132L5.74231 1.71071C5.72927 1.70086 5.71546 1.69043 5.70034 1.67907C5.66764 1.65448 5.63177 1.62774 5.59882 1.60413C5.5758 1.58763 5.54271 1.56429 5.5089 1.54371L5.48746 1.52887L5.48734 1.52879L5.48733 1.52878C5.44337 1.49833 5.37742 1.45265 5.31741 1.4158C5.26135 1.37651 5.18559 1.33174 5.13595 1.30267C5.0879 1.27453 5.03614 1.24499 5.00401 1.22665L5.00376 1.22651L4.97942 1.21259C4.97339 1.20907 4.96816 1.20616 4.96611 1.20502L4.96583 1.20486L4.95336 1.19796L4.94914 1.19564C4.94197 1.19169 4.9348 1.18774 4.92735 1.18359C4.91881 1.17884 4.9119 1.17492 4.90687 1.17199L4.9034 1.16956L4.89114 1.16208C4.84678 1.13497 4.80057 1.11022 4.77548 1.09678L4.77494 1.0965L4.76621 1.09182L4.75548 1.08604L4.74446 1.08084C4.72242 1.07043 4.68985 1.05492 4.65286 1.03728C4.98777 0.962764 5.33595 0.923457 5.69333 0.923457Z" fill="white"/>
</svg>
