<svg width="12" height="12" viewBox="0 0 12 12" fill="none" xmlns="http://www.w3.org/2000/svg">
<path d="M5.69322 0C2.54897 0 0 2.55838 0 5.71425C0 8.394 1.83823 10.6427 4.31797 11.2603V7.46052H3.14402V5.71425H4.31797V4.96179C4.31797 3.01689 5.19495 2.11541 7.09739 2.11541C7.45812 2.11541 8.0805 2.1865 8.3351 2.25736V3.8402C8.20074 3.82603 7.96732 3.81895 7.67742 3.81895C6.74396 3.81895 6.38324 4.17391 6.38324 5.09665V5.71425H8.24287L7.92337 7.46052H6.38324V11.3867C9.20229 11.045 11.3867 8.63583 11.3867 5.71425C11.3864 2.55838 8.83747 0 5.69322 0Z" fill="white"/>
</svg>
