<svg width="25" height="22" viewBox="0 0 25 22" fill="none" xmlns="http://www.w3.org/2000/svg">
<path fill-rule="evenodd" clip-rule="evenodd" d="M10.4335 16.0981C10.4335 14.8202 11.5667 15.0652 12.8784 15.0652C13.5453 15.0652 13.9114 15.4311 13.9114 16.0981V19.4131H10.4335V16.0981ZM4.34665 11.0976C4.34665 10.4281 4.60718 10.3003 5.01488 10.0281L11.1382 5.93421C11.4417 5.73101 11.8429 5.42097 12.1724 5.25946C12.4655 5.39492 13.8436 6.36012 14.2487 6.62975L19.3652 10.0477C19.7677 10.3147 19.9995 10.458 19.9995 11.0976V18.3801C19.9995 19.0757 19.6622 19.4131 18.9666 19.4131H15.6503V16.0968C15.6503 14.4243 14.5509 13.3262 12.8797 13.3262H11.4665C9.79658 13.3262 8.69591 14.4269 8.69591 16.0968V19.4131H5.38091C4.68404 19.4131 4.34795 19.0796 4.34795 18.3801V11.0976H4.34665ZM2.60775 10.7172V18.7605C2.60775 19.3219 2.992 20.0735 3.38407 20.4304C3.84648 20.8511 4.44435 21.152 5.10735 21.152H19.2375C20.557 21.152 21.7371 19.9719 21.7371 18.6524V10.7185C21.7371 10.4306 21.6303 10.1076 21.5366 9.88615C21.2239 9.145 20.5922 8.75947 19.9435 8.32702L14.8896 4.95729C14.4129 4.63946 12.5958 3.32648 12.2806 3.32648C11.6371 3.32648 11.3818 3.67554 10.7591 4.08715L6.94398 6.62975C6.37346 7.0101 3.57686 8.78287 3.23429 9.22444C2.91386 9.63866 2.60645 10.1206 2.60645 10.7159L2.60775 10.7172Z" fill="white"/>
<path fill-rule="evenodd" clip-rule="evenodd" d="M19.1294 2.0226H19.9995C20.0008 2.61006 20.0373 4.42843 19.9774 4.88302C19.7611 4.73583 19.1281 4.37502 19.1281 4.19657V2.0226H19.1294ZM0 8.32705C0 8.89757 0.593961 9.68429 1.62168 8.91708L7.84662 4.5991C8.09932 4.43238 8.27255 4.2969 8.52134 4.13278C8.77664 3.96344 8.97332 3.81626 9.22862 3.64432C9.73011 3.30435 11.7374 1.80642 12.0656 1.80642C12.614 1.80642 13.0855 2.23106 13.6638 2.65309C14.1328 2.99436 14.5887 3.26921 15.0459 3.60787C16.2325 4.48971 18.0066 5.59034 19.1932 6.47217C19.6504 6.81214 20.1063 7.08699 20.5752 7.42696L22.6632 8.87148C22.8834 9.02778 23.0996 9.25181 23.4786 9.25181C24.212 9.25181 24.7734 8.22153 23.9293 7.60542L21.7384 6.10093C21.7384 4.86871 21.7371 3.63647 21.7384 2.40555C21.7397 1.65397 21.7163 1.36613 21.3672 0.928466C20.7446 0.14693 19.9891 0.285009 19.0213 0.285009C18.4039 0.285009 17.8959 0.696608 17.651 1.08868C17.2902 1.66311 17.3918 2.1789 17.3918 3.05683L14.9351 1.38309C13.402 0.356673 12.4264 -0.771388 10.328 0.720044L6.57793 3.32777C6.43986 3.41895 6.32785 3.50757 6.19759 3.60005L0.514505 7.53508C0.263111 7.71614 0.00260766 7.92065 0.00260766 8.32705H0Z" fill="white"/>
</svg>
