<svg width="12" height="12" viewBox="0 0 12 12" fill="none" xmlns="http://www.w3.org/2000/svg">
<path d="M5.69667 1.02544C7.21875 1.02544 7.399 1.03212 7.99759 1.05881C8.55391 1.08328 8.85432 1.1767 9.05459 1.25456C9.3194 1.35688 9.51077 1.48145 9.70882 1.67942C9.90909 1.87961 10.0315 2.06869 10.1338 2.33339C10.2117 2.53358 10.3052 2.8361 10.3297 3.38997C10.3564 3.99056 10.363 4.17074 10.363 5.69C10.363 7.21148 10.3564 7.39166 10.3297 7.99002C10.3052 8.54612 10.2117 8.84641 10.1338 9.04661C10.0315 9.31131 9.90687 9.50261 9.70882 9.70058C9.50854 9.90077 9.3194 10.0231 9.05459 10.1254C8.85432 10.2033 8.55168 10.2967 7.99759 10.3212C7.39677 10.3479 7.21653 10.3545 5.69667 10.3545C4.17459 10.3545 3.99435 10.3479 3.39575 10.3212C2.83943 10.2967 2.53902 10.2033 2.33875 10.1254C2.07394 10.0231 1.88257 9.89855 1.68452 9.70058C1.48425 9.50038 1.36186 9.31131 1.2595 9.04661C1.18161 8.84641 1.08815 8.54389 1.06368 7.99002C1.03697 7.38943 1.0303 7.20926 1.0303 5.69C1.0303 4.16851 1.03697 3.98834 1.06368 3.38997C1.08815 2.83388 1.18161 2.53358 1.2595 2.33339C1.36186 2.06869 1.48648 1.87739 1.68452 1.67942C1.8848 1.47922 2.07394 1.35688 2.33875 1.25456C2.53902 1.1767 2.84166 1.08328 3.39575 1.05881C3.99435 1.03212 4.17459 1.02544 5.69667 1.02544ZM5.69667 0C4.15011 0 3.95652 0.00667318 3.34902 0.0333659C2.74375 0.0600586 2.32762 0.157932 1.96713 0.298069C1.59106 0.444879 1.27285 0.638401 0.956863 0.956489C0.63865 1.27235 0.445052 1.59044 0.298185 1.96414C0.157994 2.32671 0.0600821 2.74045 0.0333789 3.34549C0.00667579 3.95497 0 4.14849 0 5.69445C0 7.2404 0.00667579 7.43392 0.0333789 8.04118C0.0600821 8.64621 0.157994 9.06218 0.298185 9.42253C0.445052 9.79845 0.63865 10.1165 0.956863 10.4324C1.27285 10.7483 1.59106 10.944 1.96491 11.0886C2.32762 11.2287 2.74152 11.3266 3.34679 11.3533C3.95429 11.38 4.14789 11.3867 5.69445 11.3867C7.241 11.3867 7.4346 11.38 8.0421 11.3533C8.64737 11.3266 9.06349 11.2287 9.42399 11.0886C9.79783 10.944 10.116 10.7483 10.432 10.4324C10.748 10.1165 10.9438 9.79845 11.0885 9.42475C11.2287 9.06218 11.3266 8.64844 11.3533 8.0434C11.38 7.43615 11.3867 7.24262 11.3867 5.69667C11.3867 4.15072 11.38 3.95719 11.3533 3.34994C11.3266 2.7449 11.2287 2.32894 11.0885 1.96859C10.9483 1.59044 10.7547 1.27235 10.4365 0.956489C10.1205 0.640625 9.80228 0.444879 9.42844 0.300293C9.06572 0.160156 8.65182 0.062283 8.04655 0.0355903C7.43683 0.00667318 7.24323 0 5.69667 0Z" fill="white"/>
<path d="M5.69391 3.25342C4.3468 3.25342 3.25391 4.34632 3.25391 5.69342C3.25391 7.04052 4.3468 8.13342 5.69391 8.13342C7.04101 8.13342 8.13391 7.04052 8.13391 5.69342C8.13391 4.34632 7.04101 3.25342 5.69391 3.25342ZM5.69391 7.27617C4.81996 7.27617 4.11115 6.56736 4.11115 5.69342C4.11115 4.81947 4.81996 4.11067 5.69391 4.11067C6.56785 4.11067 7.27666 4.81947 7.27666 5.69342C7.27666 6.56736 6.56785 7.27617 5.69391 7.27617Z" fill="white"/>
<path d="M9.76069 2.71115C9.76069 3.31166 9.27322 3.7956 8.67624 3.7956C8.07574 3.7956 7.5918 3.30813 7.5918 2.71115C7.5918 2.11065 8.07927 1.62671 8.67624 1.62671C9.27322 1.62671 9.76069 2.11418 9.76069 2.71115Z" fill="white"/>
</svg>
