<svg width="33" height="24" viewBox="0 0 33 24" fill="none" xmlns="http://www.w3.org/2000/svg">
<path fill-rule="evenodd" clip-rule="evenodd" d="M0 7.70215C0 8.31305 0.09382 8.64525 0.524967 9.11156C0.939182 9.55964 1.40678 9.6364 2.00205 9.6364C2.34723 9.6364 2.69635 9.43706 2.91257 9.29117L4.93542 7.51338C6.49328 6.29679 8.87177 5.02656 10.7501 4.50554C12.0422 4.14733 12.5176 4.00685 13.9022 3.82449C15.4405 3.62129 17.0896 3.60419 18.6436 3.82042C20.1793 4.03274 21.2591 4.28808 22.7128 4.8065C25.1186 5.66489 26.7976 6.79935 28.6629 8.35852C29.2126 8.81832 29.7688 9.63767 30.5725 9.63767C31.2185 9.63767 31.5976 9.57392 32.0626 9.09197L32.1277 9.02023C32.3908 8.73236 32.5393 8.35596 32.5758 7.97691V7.61489C32.5575 7.43123 32.5132 7.25411 32.4403 7.09259C32.2019 6.55985 31.7799 6.281 31.4139 5.91367L30.6362 5.2311C30.5633 5.17249 30.5372 5.1336 30.4578 5.07108L29.4249 4.27123C27.2418 2.6313 24.6497 1.47451 22.0081 0.726839C20.5987 0.328255 18.3335 0 16.8981 0H16.8213H16.5282C15.1436 0 14.5613 0.0118859 12.9904 0.232019C10.7214 0.548541 8.36118 1.31697 6.3344 2.33036C4.85599 3.07022 3.62636 3.87131 2.34594 4.89122L1.16194 5.91367C0.708646 6.36957 0 6.82419 0 7.70342V7.70215Z" fill="#E6E6E6"/>
<path fill-rule="evenodd" clip-rule="evenodd" d="M4.58008 12.488C4.58008 12.699 4.66213 13.0232 4.73768 13.1782C4.91483 13.5429 5.19102 13.8765 5.56355 14.0498C6.2513 14.3676 7.03148 14.2347 7.55771 13.702C7.63326 13.6251 7.68407 13.5743 7.76092 13.4975L8.44871 12.8955C8.60632 12.7731 8.76001 12.6377 8.92413 12.5231C9.26279 12.286 9.86327 11.8692 10.2241 11.6856C11.2362 11.1724 11.7207 10.9026 12.9347 10.5614C15.1543 9.93742 17.3934 9.97147 19.6129 10.5537C20.2499 10.7204 21.4691 11.1931 22.0669 11.5266C22.7886 11.9304 23.7277 12.5075 24.3217 13.0728L25.0003 13.6837C26.157 14.8573 27.961 13.9298 27.961 12.5895C27.961 12.144 27.9506 11.9317 27.6901 11.537C27.4517 11.1762 27.1378 10.9523 26.8838 10.7153C21.3987 5.61314 12.557 5.18962 6.51179 10.0065C5.96601 10.4415 4.87317 11.2765 4.66346 11.9916C4.6322 12.0958 4.58269 12.3786 4.58269 12.488H4.58008Z" fill="#E6E6E6"/>
<path fill-rule="evenodd" clip-rule="evenodd" d="M8.99121 16.7628C8.99121 17.3151 9.06024 17.6655 9.47446 18.0771C10.058 18.658 10.932 18.7699 11.5768 18.3648C11.681 18.2997 11.763 18.2478 11.8503 18.1631C12.4768 17.5535 13.0487 17.1405 13.868 16.7875C16.2712 15.7494 18.9271 16.4084 20.7064 18.1461C21.3577 18.7804 22.4232 18.7518 23.0992 18.0784C23.4562 17.7228 23.5825 17.362 23.5825 16.7967C23.5825 15.9318 22.7254 15.2701 22.1093 14.809L21.2652 14.2279C21.1115 14.1355 20.9722 14.0495 20.8119 13.9674C19.8611 13.4842 18.7383 13.0648 17.6389 12.9333L16.3181 12.8264L15.026 12.9216C14.6157 12.9815 14.2014 13.0439 13.8328 13.1533C13.4434 13.268 13.1425 13.3554 12.7829 13.4947C12.3635 13.6576 11.763 13.9583 11.3697 14.1849L10.9333 14.4612C10.7901 14.5589 10.6532 14.6604 10.5204 14.7607C9.90948 15.2205 8.99382 15.9136 8.99382 16.7628H8.99121Z" fill="#E6E6E6"/>
<path fill-rule="evenodd" clip-rule="evenodd" d="M14.1494 21.7503C14.1494 22.4433 14.2771 22.8796 14.7681 23.3707C15.1589 23.7614 15.6278 23.9557 16.0954 23.9909H16.4093C17.1804 23.9336 17.8995 23.4594 18.1991 22.7456C18.2472 22.631 18.2955 22.4812 18.3254 22.364C18.7253 20.81 17.131 19.2339 15.4442 19.9229C14.7525 20.2056 14.1507 20.9505 14.1507 21.7516L14.1494 21.7503Z" fill="#D4AF37"/>
</svg>
