<svg width="25" height="25" viewBox="0 0 25 25" fill="none" xmlns="http://www.w3.org/2000/svg">
<path fill-rule="evenodd" clip-rule="evenodd" d="M6.13507 10.0832C6.13507 10.47 6.54664 11.2229 6.71467 11.5003C7.31646 12.4955 7.57961 12.868 8.3846 13.8254L10.117 15.6126L11.5094 16.7419C12.1763 17.2434 12.6348 17.5182 13.3643 17.8829C13.7863 18.0926 14.2344 18.3674 14.7932 17.9806C15.3142 17.6185 16.7926 15.6959 17.4061 15.6959C18.0444 15.6959 18.2007 16.0385 18.7022 16.54L20.6521 18.4899C21.2239 19.0617 21.9247 19.6309 21.0325 20.5115L19.8041 21.7567C18.1486 23.9007 15.619 22.7063 13.5609 21.8727C12.5371 21.4572 10.5885 20.2392 9.68843 19.5619L8.67634 18.7673C8.5539 18.6709 8.45756 18.5889 8.33772 18.4886C7.8675 18.0939 6.83454 17.0545 6.4555 16.6598L5.34183 15.3481C4.9667 14.8844 4.62016 14.4142 4.2802 13.9361C2.93465 12.0409 1.42633 9.11277 1.42633 6.70694C1.42633 5.3158 2.52176 4.54211 3.55469 3.50918C4.8299 2.23267 5.06829 2.811 6.57405 4.31806C6.93616 4.67887 8.05766 5.7639 8.29473 6.0687C9.02025 6.99873 8.49271 7.32172 7.66819 8.14624L6.38255 9.42801C6.24187 9.59864 6.13507 9.78621 6.13507 10.0845V10.0832ZM0 6.70567C0 9.14927 1.26741 11.7556 2.23261 13.3669C3.30201 15.154 4.5837 16.79 6.05169 18.2515L6.83583 19.037C7.50665 19.6831 8.8561 20.7277 9.59856 21.2214C9.83041 21.3751 10.018 21.5001 10.2551 21.659C12.1112 22.9017 15.2399 24.3514 17.4087 24.3514C18.5758 24.3514 19.5358 24.0492 20.2991 23.2937L20.8918 22.6503C21.5326 22.0016 22.2438 21.4363 22.6385 20.686C23.179 19.6596 22.7505 18.5772 22.0354 17.8712L19.3235 15.1605C18.538 14.3751 17.5012 13.9062 16.3888 14.5809L14.1276 16.695C13.8006 16.4762 13.4346 16.3459 13.0907 16.1153C10.9493 14.676 9.23384 12.9241 7.90523 10.741C7.7893 10.5495 7.71248 10.3711 7.61088 10.1796C7.79845 10.0545 9.46442 8.38855 9.68455 8.01993C10.0024 7.48718 10.0362 7.19149 10.0362 6.61185C10.0362 5.50728 8.60214 4.34538 7.88443 3.62767C7.31912 3.06236 6.86057 2.57519 6.26921 2.05677C6.12202 1.92782 6.05824 1.87833 5.89021 1.76891C5.03703 1.22053 4.28152 1.32866 3.457 1.74417C3.02976 1.95909 2.17265 2.89562 1.77277 3.29421C1.20876 3.85821 1.02774 3.97935 0.571842 4.66189C0.263135 5.123 0.00133563 5.93322 0.00133563 6.70694L0 6.70567Z" fill="white"/>
<path fill-rule="evenodd" clip-rule="evenodd" d="M12.794 0.57057C12.794 0.837595 12.7718 1.02906 13.0298 1.23877C13.1548 1.34037 13.3176 1.38595 13.5104 1.42372C15.9462 1.90437 17.9521 2.9477 19.7014 4.69704C19.8174 4.81297 19.9307 4.9107 20.0297 5.03445C20.1521 5.18815 20.2212 5.24673 20.341 5.38871C20.7031 5.81595 21.2059 6.49851 21.4651 6.97525L22.162 8.32341C22.6257 9.36416 22.6765 9.96073 22.9305 10.9311C23.1988 11.951 24.349 11.5407 24.349 10.939C24.349 10.3463 23.8853 8.86528 23.6495 8.26089C23.3447 7.48066 22.9852 6.70562 22.5332 6.00094C22.1828 5.45516 21.7673 4.92112 21.3596 4.41573C21.0248 4.00021 20.074 3.09233 19.6467 2.75236C18.0237 1.45892 16.1624 0.513249 14.1109 0.106851C13.9259 0.070379 13.7422 0.0143282 13.5651 0H13.3892C13.2564 0.0130256 13.13 0.0625356 13.0128 0.175858C12.8994 0.285273 12.79 0.37255 12.79 0.571842L12.794 0.57057Z" fill="white"/>
<path fill-rule="evenodd" clip-rule="evenodd" d="M19.1195 11.7479C19.5559 11.7479 19.9284 11.5707 19.9284 11.0822C19.9284 10.3359 19.3891 9.0763 19.1208 8.56048C18.4265 7.22666 17.1383 5.89935 15.7914 5.23113C15.0594 4.86772 14.0525 4.42358 13.1759 4.42358C12.832 4.42358 12.3722 4.93284 12.6809 5.48904C13.0521 6.15595 14.0499 5.4018 16.5378 7.48199L16.9728 7.95086C17.0549 8.05246 17.1109 8.08899 17.1982 8.20101C17.714 8.8588 18.1959 9.7758 18.4082 10.6055C18.4942 10.9416 18.562 11.7479 19.1208 11.7479H19.1195Z" fill="white"/>
</svg>
