<svg width="153" height="153" viewBox="0 0 153 153" fill="none" xmlns="http://www.w3.org/2000/svg">
<path fill-rule="evenodd" clip-rule="evenodd" d="M76.0812 0C118.099 0 152.162 34.0632 152.162 76.0812C152.162 118.099 118.099 152.162 76.0812 152.162C34.0633 152.162 0 118.099 0 76.0812C0 34.0632 34.0633 0 76.0812 0Z" fill="#141313" fill-opacity="0.270588"/>
<path fill-rule="evenodd" clip-rule="evenodd" d="M30.8142 76.295C30.8142 65.2662 34.6268 55.1386 41.3741 47.1136C41.9133 46.4714 42.0449 46.2421 42.661 45.6377C44.0456 44.2818 43.2719 44.7431 44.7751 43.5017C45.8405 42.6212 46.7732 41.5088 48.5108 40.2232C62.2254 30.0776 78.9712 27.8136 94.7803 34.8552C96.0165 35.4049 97.2943 36.081 98.408 36.7531C101.52 38.6288 102.184 38.9649 105.05 41.3747C106.163 42.3099 107.743 43.6645 108.662 44.7756C108.918 45.0856 109.108 45.2511 109.394 45.5311C112.166 48.247 115.742 53.8686 117.308 57.3816C122.701 69.4863 122.699 82.6762 117.308 94.7809C116.758 96.017 116.082 97.2948 115.41 98.4085C113.222 102.037 113.399 101.751 110.816 105.077L108.779 107.291C106.582 110.062 101.571 113.516 98.5421 115.331C85.3902 123.218 66.7987 123.328 53.8865 115.492C51.0716 113.783 48.0393 111.95 45.7442 109.607C45.4667 109.323 45.2961 109.127 44.99 108.873C44.5784 108.531 44.5536 108.601 44.1472 108.229C43.0947 107.266 39.8944 103.199 39.0399 102.071C37.7061 100.31 35.945 96.9756 34.9199 94.9279C32.6795 90.4523 30.8142 82.9472 30.8142 76.2937V76.295ZM73.8078 21.6772H79.0428C85.9229 22.0094 92.7536 23.6545 99.1074 26.7038C104.379 29.2347 112.892 34.923 116.248 39.3165L123.262 48.8799C128.412 58.4641 130.487 65.1514 130.487 77.5701C130.487 98.0124 117.135 117.104 98.9641 125.53C91.1996 129.131 84.3716 130.488 74.5946 130.488C54.2277 130.488 35.0853 117.189 26.6343 98.9646C23.0132 91.1558 21.6768 84.4268 21.6768 74.595C21.6768 63.7903 25.8801 52.6248 31.5749 44.7522C32.1168 44.0032 32.4593 43.5043 32.9999 42.7775L37.5628 37.5647C47.2903 27.8371 60.4318 22.3168 73.8091 21.6785L73.8078 21.6772Z" fill="#D4AF37"/>
<path fill-rule="evenodd" clip-rule="evenodd" d="M66.9424 60.9923V91.5959C66.9424 92.5832 67.2029 93.5707 67.5728 94.1542C69.2583 96.8205 72.0354 94.4266 73.6519 93.2048L84.7327 85.1574C86.004 84.2 87.1738 83.4197 88.4398 82.4897C89.715 81.5531 90.8209 80.7678 92.143 79.8169C95.277 77.5635 96.9312 76.0851 92.9011 73.0749C86.6045 68.3726 79.8403 63.7225 73.5932 59.0176C71.8556 57.7086 69.3573 55.5985 67.5311 58.1789C67.1039 58.7819 66.9437 59.992 66.9437 60.9923H66.9424Z" fill="#D4AF37"/>
</svg>
