<svg width="33" height="31" viewBox="0 0 33 31" fill="none" xmlns="http://www.w3.org/2000/svg">
<path fill-rule="evenodd" clip-rule="evenodd" d="M15.689 7.60271C17.9033 7.45422 19.5276 8.07938 21.1649 9.32072C21.6247 9.6698 21.9921 10.1062 22.3516 10.5452C23.2529 11.6445 23.8365 13.1412 23.9589 14.6574C24.3158 19.0913 20.9213 22.6812 16.8899 22.9612C12.4495 23.2686 8.90393 19.9496 8.60694 15.8869C8.43891 13.6023 9.35592 11.1352 11.0245 9.64636C12.2984 8.50792 13.8862 7.72385 15.6903 7.60271H15.689ZM15.53 5.98113C13.5983 6.10747 11.9298 6.86543 10.5048 7.96219C9.84696 8.46888 9.27123 9.07081 8.78407 9.73642C7.44765 11.56 6.79639 13.7144 6.98657 16.0655C7.38385 20.9684 11.6536 24.9723 17.0527 24.5803C21.9477 24.226 25.9883 19.8782 25.5845 14.5116C25.4764 13.0827 25.0804 12.0326 24.5281 10.9059C24.2298 10.2976 23.5616 9.35736 23.0601 8.87932C22.8713 8.69957 22.6915 8.45466 22.4792 8.29444C21.8709 7.83724 21.9113 7.80728 21.1349 7.30709C20.696 7.02444 20.1059 6.74316 19.5692 6.54387C18.281 6.06583 17.0228 5.87936 15.53 5.97706V5.98113Z" fill="#E6E6E6"/>
<path fill-rule="evenodd" clip-rule="evenodd" d="M15.6187 16.4459L14.561 20.4655C14.4607 20.8667 14.1442 21.6299 14.8294 21.531C14.9674 21.4867 16.6777 19.4443 16.8418 19.2502L18.0532 17.8421C18.5612 17.1778 19.344 16.382 19.8312 15.7516C19.908 15.6513 19.968 15.6056 20.0448 15.5079C20.2102 15.2969 20.7938 14.677 20.8185 14.5259C20.8719 14.2133 20.6322 14.126 20.3613 14.1221H16.9486C17.0893 13.3914 17.3719 12.4703 17.5738 11.7422C17.6676 11.4061 18.1951 9.53579 18.1873 9.3365C18.1808 9.1867 17.9333 8.67743 17.4006 9.36779C17.3355 9.45246 17.2938 9.48366 17.2247 9.56572C16.5969 10.3251 15.4272 11.6043 14.9635 12.2126L14.6222 12.6201C14.363 12.8989 14.1637 13.1541 13.9293 13.4251L12.1825 15.4636C11.9663 15.6929 11.5156 16.1397 11.8973 16.3846C12.0536 16.4849 12.3819 16.4418 12.5851 16.4418C13.5815 16.4405 14.63 16.4107 15.62 16.4459H15.6187Z" fill="#D4AF37"/>
<path fill-rule="evenodd" clip-rule="evenodd" d="M28.1931 14.4817C27.3672 14.6472 27.293 15.5835 27.8713 15.9652C28.1995 16.1814 29.6831 16.0954 30.2172 16.0954C30.6275 16.0954 31.5445 16.1437 31.891 16.0825C32.7442 15.9314 32.9865 14.4633 31.5068 14.4672C31.0352 14.4685 28.4184 14.4361 28.1931 14.4817Z" fill="#E6E6E6"/>
<path fill-rule="evenodd" clip-rule="evenodd" d="M0.671704 14.4921C-0.158027 14.6771 -0.185419 15.6357 0.404641 15.9834C0.722466 16.171 2.27904 16.0954 2.7675 16.0954C3.14134 16.0954 4.13911 16.141 4.43609 16.0732C4.83077 15.9847 5.18378 15.5692 5.03789 15.0495C4.90373 14.5754 4.52596 14.4646 3.97498 14.4672C3.48001 14.4685 0.937396 14.4322 0.672976 14.4908L0.671704 14.4921Z" fill="#E6E6E6"/>
<path fill-rule="evenodd" clip-rule="evenodd" d="M21.4959 25.6382C21.5272 25.9247 22.6904 27.8031 22.9079 28.1665C23.1385 28.5533 23.3495 29.1121 23.7962 29.2306C24.3876 29.387 24.8956 28.9128 24.8253 28.3423C24.7875 28.0401 23.3872 25.7685 23.0368 25.1706C22.5262 24.2979 21.4008 24.7511 21.4959 25.6394V25.6382Z" fill="#E6E6E6"/>
<path fill-rule="evenodd" clip-rule="evenodd" d="M11.0696 25.6797C11.1999 25.1013 10.6697 24.6092 10.0953 24.7264C9.60686 24.8267 9.40502 25.375 9.17837 25.7697C8.96736 26.137 7.80676 28.0438 7.75987 28.2626C7.62831 28.8722 8.14673 29.3686 8.742 29.237C9.1979 29.1367 9.40106 28.5872 9.64724 28.1899C9.85305 27.8577 11.0162 25.9194 11.0696 25.6784V25.6797Z" fill="#E6E6E6"/>
<path fill-rule="evenodd" clip-rule="evenodd" d="M23.8129 1.331C23.3557 1.46126 23.1264 2.00976 22.9089 2.40053C22.6744 2.81735 22.4296 3.21849 22.1834 3.6288C22.0571 3.83851 21.5308 4.68387 21.4996 4.8988C21.411 5.49016 21.906 5.98649 22.5116 5.83018C22.9376 5.72076 23.1512 5.21668 23.4065 4.766C23.6423 4.35178 24.7703 2.54898 24.8185 2.26111C24.9188 1.66454 24.3938 1.16561 23.8129 1.32973V1.331Z" fill="#E6E6E6"/>
<path fill-rule="evenodd" clip-rule="evenodd" d="M8.34152 1.33226C7.82701 1.47033 7.58213 2.06428 7.88823 2.59182C8.1266 3.00473 8.36367 3.39956 8.61246 3.82289C8.76747 4.08731 9.54771 5.50184 9.73007 5.65945C10.3761 6.21825 11.4794 5.51228 10.9427 4.57314L9.4943 2.11252C9.25853 1.71133 9.00713 1.15403 8.34152 1.33378V1.33226Z" fill="#E6E6E6"/>
<path fill-rule="evenodd" clip-rule="evenodd" d="M3.49041 7.29302C2.90556 7.51576 2.83135 8.08491 3.06841 8.49C3.22212 8.75051 3.91245 9.08119 4.21725 9.25704C4.61583 9.48629 5.02748 9.72871 5.43128 9.95665C5.63708 10.0739 5.83242 10.1806 6.03562 10.3082C6.90443 10.8501 7.66647 9.91367 7.21969 9.20768C7.04124 8.92633 5.27495 7.97155 4.85683 7.7423C4.48039 7.53519 3.99453 7.10154 3.48914 7.29302H3.49041Z" fill="#E6E6E6"/>
<path fill-rule="evenodd" clip-rule="evenodd" d="M25.7854 20.1423C25.1758 20.3534 25.0911 20.9774 25.349 21.3551C25.5574 21.6612 27.2664 22.5561 27.7132 22.8192C28.0792 23.0354 28.5872 23.4575 29.1057 23.2738C29.516 23.1279 29.8077 22.5886 29.5016 22.0728C29.3518 21.8188 28.6536 21.48 28.3527 21.3055C27.9594 21.0775 27.5373 20.8288 27.1401 20.6074C26.774 20.4029 26.2817 19.9717 25.7854 20.1436V20.1423Z" fill="#E6E6E6"/>
<path fill-rule="evenodd" clip-rule="evenodd" d="M6.30882 20.1361C6.07045 20.2077 5.90767 20.3366 5.69405 20.4538C5.49345 20.5645 5.31495 20.6778 5.0883 20.8041C4.68321 21.0308 4.28335 21.2627 3.87695 21.505C3.48227 21.7395 2.96126 21.8997 2.94563 22.4807C2.9313 23.0147 3.40284 23.4613 3.9955 23.2907C4.1974 23.2321 6.06782 22.1223 6.413 21.9217C6.82461 21.6821 7.33394 21.5142 7.35347 20.9372C7.37171 20.3875 6.87152 19.9654 6.30882 20.1348V20.1361Z" fill="#E6E6E6"/>
<path fill-rule="evenodd" clip-rule="evenodd" d="M16.0598 0.0322858C15.5297 0.174265 15.4685 0.637895 15.4711 1.05602C15.4737 1.52885 15.4359 4.00229 15.5036 4.25238C15.6847 4.92059 16.5756 5.05628 16.9664 4.48185C17.1032 4.28126 17.1006 4.06755 17.0993 3.80182C17.098 3.31988 17.1345 0.865782 17.0706 0.602665C16.9756 0.218409 16.5613 -0.10315 16.0612 0.0310138L16.0598 0.0322858Z" fill="#E6E6E6"/>
<path fill-rule="evenodd" clip-rule="evenodd" d="M28.5817 7.27201C28.372 7.33324 28.1518 7.49202 27.9786 7.59231L26.1589 8.64225C25.746 8.88322 25.238 9.04071 25.2146 9.62426C25.1924 10.17 25.7056 10.6066 26.28 10.4307C26.4585 10.376 28.4866 9.17883 28.6924 9.05769C29.1118 8.8089 29.6016 8.6682 29.6224 8.08204C29.6419 7.53757 29.1522 7.10398 28.5817 7.27201Z" fill="#E6E6E6"/>
<path fill-rule="evenodd" clip-rule="evenodd" d="M17.0997 26.6761C17.101 25.4152 15.6539 25.4856 15.4858 26.3779C15.4402 26.6189 15.4715 29.1211 15.4702 29.59C15.4676 30.8991 16.9512 30.7661 17.0879 29.879L17.0984 26.6748L17.0997 26.6761Z" fill="#E6E6E6"/>
</svg>
