<svg width="29" height="31" viewBox="0 0 29 31" fill="none" xmlns="http://www.w3.org/2000/svg">
<path fill-rule="evenodd" clip-rule="evenodd" d="M1.84699 8.41983C3.10005 9.24175 4.42478 9.94241 5.7104 10.6823C6.99082 11.4182 8.40674 12.2794 9.69237 12.9528C9.44619 13.7656 9.02023 14.1747 9.25079 15.3509C9.45659 16.3981 9.95154 16.5935 10.3319 17.22C9.932 18.4066 8.53828 20.3657 7.90784 21.0951C7.14714 21.973 5.73515 23.5882 3.91678 23.3408C3.54555 22.8601 3.56122 22.1072 3.01414 21.4859C2.32118 20.7004 2.07889 20.9478 1.30778 20.4606L1.29734 16.8748L0.00127203 16.8827L0 30.5374L1.30122 30.5583L1.29995 26.9462C1.91737 26.5997 2.17397 26.756 2.79529 26.1776C3.22513 25.7791 3.44397 25.3388 3.7123 24.6563C7.20707 24.8217 9.37319 21.6303 10.8777 19.0838C11.116 18.68 11.2619 18.2438 11.5589 17.8713C12.4603 17.9586 13.2327 18.0445 13.9764 17.6655C14.7189 17.2877 14.8505 16.8486 15.3793 16.3029C16.0071 16.5087 17.9779 17.746 18.6331 18.129C19.2935 18.5146 21.4062 19.8472 21.9794 19.9918L23.3367 15.3313C22.7089 15.1112 21.6447 14.4259 20.9243 14.0013L6.62614 5.72363C6.10381 5.41232 4.63319 4.4613 4.14733 4.3623L1.84572 8.4211L1.84699 8.41983Z" fill="#E6E6E6"/>
<path fill-rule="evenodd" clip-rule="evenodd" d="M4.46094 3.94432C5.28025 4.26214 6.50856 5.0736 7.42687 5.60635C8.41421 6.17948 9.3794 6.72773 10.3524 7.30477C12.2776 8.44581 14.3252 9.59202 16.296 10.7474C18.2342 11.8819 20.2701 13.0518 22.2357 14.1903C24.0202 15.2245 23.4822 15.0537 25.41 14.1653C26.1408 13.8293 28.2391 12.9709 28.5869 12.5814L6.69615 0C6.44866 0.260512 4.55993 3.48578 4.46094 3.94559V3.94432Z" fill="#D4AF37"/>
<path fill-rule="evenodd" clip-rule="evenodd" d="M22.8506 18.9993C23.4901 19.0723 24.2183 19.4473 24.8162 19.3626C25.1093 18.8338 26.0354 15.1906 26.1891 14.387C25.5639 14.5784 23.8966 15.2492 23.6986 15.8223C23.455 16.5257 22.9535 18.253 22.8506 18.9993Z" fill="#E6E6E6"/>
</svg>
