<svg width="21" height="31" viewBox="0 0 21 31" fill="none" xmlns="http://www.w3.org/2000/svg">
<path fill-rule="evenodd" clip-rule="evenodd" d="M2.14922 14.7398C2.40843 14.8088 3.80221 16.303 4.01453 16.5153L8.60994 21.1106C8.77536 21.2761 9.4905 21.8793 9.4905 22.0812V25.6617C8.27912 25.6617 6.24581 24.7864 5.24414 23.9997C3.60682 22.714 2.47361 21.1093 2.00599 18.9418C1.50842 16.6311 2.1349 15.4158 2.14922 14.7398ZM11.2815 25.6617V22.0812C11.2815 21.8624 14.6916 18.581 14.9078 18.3661L18.1004 15.1736C18.2645 15.0081 18.3831 14.8049 18.6227 14.7411C18.6279 14.9807 18.8676 15.7701 18.9223 16.7705C18.9366 17.0466 18.9809 16.9997 18.9484 17.2706C18.921 17.4921 18.9275 17.6197 18.9223 17.8451C18.9158 18.146 18.8364 18.589 18.7765 18.8925C18.5264 20.1416 17.9389 21.3465 17.3006 22.1919C16.9867 22.6074 16.6142 23.1035 16.2169 23.4357C15.9837 23.631 15.7961 23.781 15.5604 23.9725C15.3507 24.1431 15.0811 24.3097 14.8505 24.4568C14.7085 24.548 14.6226 24.5819 14.4688 24.6718C14.3204 24.7604 14.237 24.8178 14.0846 24.8855C13.7968 25.0119 13.5584 25.1122 13.2262 25.2216C12.7377 25.3831 11.8703 25.6617 11.2789 25.6617H11.2815ZM11.2958 19.4094L11.2776 13.841C11.2724 13.2887 11.357 13.3787 12.0409 12.6949C12.6726 12.0631 13.2601 11.4755 13.8905 10.8451C14.2136 10.5221 14.4923 10.2434 14.8154 9.92032C15.0225 9.71321 15.5773 9.07362 15.8144 9.0098C15.8652 9.20258 15.9681 9.29525 16.0723 9.46849C16.1765 9.64304 16.2573 9.75625 16.3485 9.90734C16.536 10.2187 16.7275 10.5144 16.9073 10.84C17.3801 11.6971 17.5806 12.2207 17.9024 12.8289L11.2919 19.4081L11.2958 19.4094ZM4.95494 9.0098C5.21676 9.08014 6.63007 10.5952 6.85021 10.8153L9.17783 13.1429C9.42923 13.3891 9.49572 13.3305 9.49572 13.7812L9.49177 19.3952L2.88128 12.816L3.32414 11.8561C3.84256 10.8193 4.13698 10.4153 4.67624 9.50742C4.78045 9.33157 4.90675 9.19473 4.95494 9.01107V9.0098ZM6.1338 7.47293C6.20153 7.26192 6.73814 6.62241 6.89835 6.41791C7.24093 5.98285 9.20133 3.65375 9.4905 3.45967V10.8008L6.1338 7.47293ZM11.2958 10.8153L11.2815 3.45967C11.5733 3.65506 13.1064 5.51119 13.4451 5.89154L14.6825 7.45843L11.2958 10.8153ZM0.00133563 16.8292C0.00133563 18.8104 0.30485 20.2432 1.0942 21.8232C2.04377 23.7237 3.80089 25.4794 5.68961 26.4186C6.73817 26.9396 8.06937 27.3942 9.48916 27.5128V30.5567H11.2802V27.5128C13.94 27.2913 16.1166 26.089 17.8907 24.3357C18.0809 24.1482 18.2841 23.8968 18.443 23.6936C20.0569 21.6226 20.7706 19.6935 20.7706 16.8305C20.7706 15.7858 20.4984 14.7856 20.2588 13.9402C19.9409 12.8174 19.5202 11.9197 19.0187 10.9428C18.9132 10.7383 18.8351 10.573 18.7413 10.3841C17.8321 8.5514 14.7671 4.38849 13.3539 2.99996L10.3853 0L8.63989 1.65695C6.95959 3.5652 5.56845 4.94989 4.01059 7.23328C3.457 8.04478 2.49443 9.4501 2.04765 10.3437C1.94345 10.5521 1.87964 10.6994 1.77022 10.9013L1.47193 11.4979C1.28697 11.8991 1.11633 12.2377 0.953515 12.6506C0.474173 13.8646 0 15.4459 0 16.8292H0.00133563Z" fill="#E6E6E6"/>
</svg>
