<svg width="12" height="12" viewBox="0 0 12 12" fill="none" xmlns="http://www.w3.org/2000/svg">
<path d="M0 11.3867L0.804208 8.46266C0.307954 7.60677 0.0471942 6.63653 0.0476709 5.64162C0.049101 2.53116 2.59234 0 5.71717 0C7.23358 0.000474444 8.65703 0.588311 9.72772 1.65486C10.7979 2.72141 11.3871 4.13905 11.3867 5.64684C11.3852 8.75777 8.84199 11.2889 5.71717 11.2889C4.76852 11.2885 3.83369 11.0517 3.00565 10.6019L0 11.3867ZM3.14485 9.58046C3.94381 10.0525 4.70655 10.3353 5.71526 10.3358C8.31237 10.3358 10.428 8.23209 10.4294 5.64589C10.4304 3.05447 8.32477 0.953633 5.71908 0.952684C3.12006 0.952684 1.00586 3.05637 1.0049 5.64209C1.00443 6.69773 1.31524 7.48816 1.83724 8.31511L1.361 10.0459L3.14485 9.58046ZM8.57313 6.98809C8.53785 6.92926 8.44347 6.89415 8.30141 6.82346C8.15982 6.75277 7.46335 6.41164 7.33321 6.36467C7.20355 6.3177 7.10916 6.29398 7.01429 6.43536C6.9199 6.57627 6.64818 6.89415 6.56571 6.98809C6.48324 7.08203 6.40029 7.09389 6.25871 7.0232C6.11713 6.95251 5.66044 6.80401 5.11938 6.3234C4.69844 5.94953 4.41385 5.4879 4.33138 5.34651C4.24891 5.2056 4.32279 5.12922 4.39335 5.059C4.45723 4.9959 4.53493 4.89437 4.60596 4.81182C4.67794 4.73021 4.7013 4.67138 4.74897 4.57697C4.79617 4.48303 4.77281 4.40047 4.73706 4.32978C4.7013 4.25956 4.41814 3.56545 4.30039 3.28316C4.18503 3.00845 4.06823 3.04546 3.98147 3.04119L3.70975 3.03644C3.61536 3.03644 3.46186 3.07155 3.33219 3.21294C3.20253 3.35432 2.83642 3.69497 2.83642 4.38909C2.83642 5.0832 3.34411 5.75359 3.41466 5.84753C3.48569 5.94147 4.41337 7.36575 5.83444 7.97636C6.17242 8.12154 6.43652 8.20836 6.64198 8.27336C6.9814 8.38059 7.29031 8.3654 7.53438 8.32935C7.80658 8.28902 8.37244 7.98822 8.49066 7.65896C8.60888 7.32922 8.60888 7.04692 8.57313 6.98809Z" fill="white"/>
</svg>
